<?xml version="1.0" encoding="iso-8859-1"?>
<!-- Uploaded to: SVG Repo, www.svgrepo.com, Generator: SVG Repo Mixer Tools -->
<svg height="800px" width="800px" version="1.1" id="Layer_1" xmlns="http://www.w3.org/2000/svg" xmlns:xlink="http://www.w3.org/1999/xlink" 
	 viewBox="0 0 512.001 512.001" xml:space="preserve">
<path style="fill:#92C9FF;" d="M500.87,256c0,26.19-4.107,51.423-11.731,75.086c-23.841,74.106-82.042,132.797-155.837,157.329
	c-24.298,8.081-50.287,12.455-77.301,12.455c-135.235,0-244.87-109.635-244.87-244.87c0-28.694,4.931-56.231,14.002-81.82
	C58.803,79.182,149.46,11.13,256.001,11.13c34.771,0,67.84,7.246,97.792,20.313C440.365,69.198,500.87,155.537,500.87,256z"/>
<g>
	<path style="fill:#87DFD6;" d="M501.983,256c0,26.19-4.107,51.423-11.731,75.086c-17.363-10.162-34.17-24.754-48.529-43.164
		c-13.547-17.373-23.267-36.037-29.042-54.318c-10.329-32.707-32.81-59.976-61.824-78.27c-24.14-15.221-39.205-36.799-39.205-60.725
		c0-25.233,16.762-47.861,43.253-63.165C441.478,69.198,501.983,155.537,501.983,256z"/>
	<path style="fill:#87DFD6;" d="M334.414,488.415c-24.342,8.095-50.383,12.471-77.45,12.455
		c-136.24-0.081-245.569-110.2-244.715-246.438c0.176-28.129,5.091-55.129,13.998-80.252c34.495,13.344,71.891,28.215,95.507,37.66
		c14.411,5.763,23.588,20.011,22.885,35.516l-1.604,35.399c-0.767,16.926,10.222,32.152,26.528,36.756l0,0
		c12.809,3.616,22.632,13.923,25.629,26.89l5.656,24.474c3.295,14.255,14.787,25.161,29.194,27.707l67.848,11.987
		c15.518,2.741,27.521,15.139,29.761,30.737L334.414,488.415z"/>
	<path style="fill:#87DFD6;" d="M273.78,292.439c-3.603,2.616-43.878,22.923-43.878,22.923l14.303,25.379l0,0
		c23.651,28.69,64.004,37.202,97.228,20.51l4.681-2.352l2.424-21.709c1.843-16.509-9.252-31.682-25.542-34.932L273.78,292.439z"/>
</g>
<path d="M267.131,55.652c0-6.147-4.984-11.13-11.13-11.13c-48.269,0-95.48,16.691-132.935,46.999
	c-4.779,3.867-5.518,10.876-1.651,15.654c2.199,2.718,5.415,4.129,8.658,4.129c2.459,0,4.935-0.811,6.994-2.479
	c33.506-27.112,75.744-42.043,118.933-42.043C262.147,66.783,267.131,61.8,267.131,55.652z"/>
<path d="M509.87,222.975c-0.402-3.102-0.86-6.19-1.375-9.262c-0.257-1.536-0.528-3.069-0.811-4.597
	c-0.569-3.056-1.192-6.098-1.869-9.121c-1.355-6.047-2.925-12.026-4.704-17.928c-21.353-70.805-72.815-130.276-142.868-160.826
	C325.935,7.147,291.537,0,256.001,0C147.774,0,50.781,68.502,14.644,170.459c0,0,0,0.001-0.001,0.002
	c-0.602,1.699-1.185,3.403-1.751,5.112c-0.171,0.516-0.328,1.036-0.496,1.554c-0.385,1.191-0.772,2.382-1.141,3.578
	c-0.214,0.695-0.412,1.392-0.619,2.088c-0.305,1.024-0.616,2.046-0.908,3.073c-0.221,0.779-0.427,1.563-0.642,2.344
	c-0.259,0.946-0.525,1.891-0.774,2.84c-0.22,0.839-0.423,1.683-0.634,2.525c-0.225,0.896-0.455,1.79-0.67,2.688
	c-0.209,0.876-0.403,1.755-0.603,2.633c-0.198,0.868-0.402,1.736-0.591,2.607c-0.195,0.897-0.374,1.799-0.559,2.698
	c-0.176,0.856-0.358,1.711-0.525,2.569c-0.178,0.915-0.341,1.832-0.51,2.749c-0.155,0.847-0.316,1.692-0.463,2.54
	c-0.16,0.927-0.306,1.859-0.456,2.788c-0.136,0.841-0.277,1.683-0.405,2.525c-0.141,0.931-0.267,1.864-0.397,2.797
	c-0.119,0.848-0.242,1.695-0.353,2.546c-0.12,0.929-0.227,1.861-0.337,2.793c-0.101,0.855-0.207,1.71-0.299,2.567
	c-0.1,0.928-0.188,1.859-0.278,2.788c-0.085,0.865-0.171,1.729-0.247,2.594c-0.08,0.922-0.148,1.844-0.218,2.767
	c-0.067,0.879-0.137,1.757-0.195,2.637c-0.06,0.914-0.109,1.83-0.159,2.745c-0.049,0.892-0.1,1.782-0.141,2.675
	c-0.041,0.91-0.07,1.821-0.102,2.733c-0.031,0.9-0.063,1.801-0.086,2.702c-0.022,0.904-0.032,1.809-0.045,2.715
	c-0.009,0.643-0.028,1.286-0.032,1.93c-0.001,0.24,0.006,0.479,0.004,0.718c0.001,0.306-0.008,0.612-0.008,0.919
	c0,0.798,0.022,1.593,0.029,2.391c0.01,1.087,0.017,2.176,0.04,3.261c0.021,0.956,0.056,1.91,0.087,2.864
	c0.039,1.223,0.078,2.446,0.134,3.666c0.035,0.749,0.081,1.496,0.122,2.244c0.079,1.443,0.161,2.884,0.264,4.322
	c0.033,0.465,0.075,0.928,0.11,1.392c0.134,1.736,0.278,3.47,0.445,5.2c0.011,0.109,0.023,0.218,0.035,0.328
	c5.742,58.551,31.097,112.774,72.938,154.902c45.308,45.62,104.927,72.018,169.026,75.119c0.019,0.001,0.038,0.001,0.057,0.002
	c2.078,0.1,4.161,0.178,6.248,0.228c0.985,0.025,1.976,0.025,2.963,0.038c1.116,0.014,2.229,0.042,3.348,0.042
	c0.052,0,0.102,0,0.156,0l0,0l0,0c19.002,0,37.791-2.071,56.122-6.174c8.333-1.864,16.571-4.149,24.692-6.85
	c0.002-0.001,0.004-0.001,0.007-0.002c77.125-25.642,138.027-87.128,162.911-164.472c0-0.001,0-0.001,0.001-0.002
	c8.141-25.264,12.268-51.675,12.268-78.501C512.001,244.857,511.278,233.83,509.87,222.975z M320.876,480.619
	c-0.128,0.037-0.257,0.071-0.385,0.108c-1.287,0.368-2.577,0.727-3.869,1.073c-0.465,0.125-0.932,0.242-1.398,0.364
	c-0.959,0.25-1.919,0.499-2.881,0.737c-0.547,0.136-1.094,0.265-1.642,0.396c-0.889,0.214-1.78,0.423-2.671,0.627
	c-0.573,0.13-1.148,0.257-1.722,0.383c-0.879,0.193-1.76,0.381-2.641,0.563c-0.572,0.119-1.145,0.237-1.719,0.351
	c-0.907,0.181-1.816,0.354-2.726,0.524c-0.542,0.101-1.084,0.205-1.628,0.303c-1.003,0.18-2.009,0.349-3.015,0.516
	c-0.45,0.075-0.899,0.155-1.35,0.226c-1.455,0.233-2.913,0.454-4.373,0.66c-0.088,0.012-0.176,0.022-0.264,0.035
	c-1.37,0.191-2.744,0.37-4.118,0.536c-0.488,0.059-0.976,0.11-1.465,0.167c-0.979,0.112-1.959,0.223-2.941,0.324
	c-0.571,0.058-1.142,0.11-1.714,0.165c-0.904,0.086-1.809,0.168-2.715,0.244c-0.599,0.05-1.198,0.096-1.796,0.141
	c-0.89,0.067-1.781,0.129-2.674,0.186c-0.6,0.039-1.201,0.076-1.801,0.11c-0.909,0.051-1.82,0.095-2.731,0.136
	c-0.575,0.026-1.151,0.053-1.726,0.076c-0.996,0.038-1.992,0.065-2.99,0.089c-0.489,0.012-0.977,0.029-1.466,0.038
	c-1.479,0.028-2.958,0.043-4.44,0.043c-0.006,0-0.011,0-0.017,0c-122.823,0-223.824-95.227-233.05-215.728
	c-0.002-0.03-0.004-0.059-0.007-0.089c-0.127-1.662-0.227-3.331-0.318-5.003c-0.024-0.469-0.055-0.937-0.077-1.407
	c-0.062-1.289-0.106-2.582-0.148-3.876c-0.024-0.781-0.053-1.563-0.071-2.346c-0.023-1.067-0.031-2.139-0.041-3.211
	c-0.008-0.983-0.021-1.965-0.018-2.95c0.003-0.963,0.016-1.924,0.03-2.885c0.009-0.539,0.012-1.077,0.024-1.616
	c0.035-1.518,0.08-3.035,0.144-4.55c0.013-0.326,0.035-0.652,0.049-0.978c0.056-1.217,0.118-2.432,0.193-3.646
	c0.036-0.582,0.079-1.164,0.119-1.746c0.066-0.963,0.136-1.924,0.214-2.885c0.051-0.629,0.106-1.257,0.163-1.884
	c0.082-0.927,0.171-1.854,0.265-2.78c0.063-0.622,0.126-1.243,0.194-1.864c0.107-0.981,0.224-1.96,0.343-2.938
	c0.067-0.549,0.13-1.099,0.2-1.647c0.184-1.418,0.378-2.834,0.588-4.247c0.039-0.26,0.079-0.52,0.118-0.779
	c0.203-1.336,0.415-2.669,0.641-4.001c0.091-0.54,0.19-1.077,0.285-1.616c0.173-0.979,0.349-1.959,0.534-2.936
	c0.112-0.593,0.229-1.184,0.346-1.776c0.185-0.936,0.376-1.871,0.573-2.805c0.124-0.585,0.247-1.171,0.375-1.755
	c0.216-0.986,0.441-1.97,0.67-2.953c0.119-0.514,0.235-1.028,0.358-1.542c0.325-1.353,0.661-2.704,1.01-4.05
	c0.035-0.134,0.066-0.268,0.101-0.402c0.387-1.483,0.791-2.961,1.208-4.437c0.128-0.454,0.264-0.906,0.394-1.36
	c0.216-0.747,0.437-1.493,0.661-2.238c30.673,11.934,62.293,24.507,84.438,33.365c9.997,3.998,16.387,13.916,15.899,24.678
	l-1.604,35.4c-1.004,22.205,13.234,41.932,34.623,47.971c8.902,2.513,15.726,9.673,17.809,18.686l5.656,24.474
	c4.307,18.638,19.263,32.833,38.101,36.161l67.849,11.987c10.81,1.91,19.12,10.493,20.679,21.357l5.416,37.712
	C320.915,480.607,320.895,480.613,320.876,480.619z M342.369,473.255l-4.815-33.53c-2.93-20.408-18.538-36.528-38.841-40.115
	l-67.849-11.987c-10.03-1.772-17.992-9.33-20.286-19.252l-5.656-24.474c-3.912-16.927-16.728-30.375-33.449-35.096
	c-11.389-3.216-18.97-13.718-18.434-25.541l1.603-35.399c0.916-20.214-11.088-38.842-29.87-46.355
	c-22.349-8.939-54.335-21.656-85.296-33.7C75.123,80.317,160.797,22.261,256.001,22.261c25.561,0,50.467,4.064,74.3,12.067
	c-19.847,16.757-30.891,37.957-30.891,60.281c0,26.783,16.183,52.349,44.399,70.141c27.654,17.436,47.948,43.079,57.147,72.206
	c6.323,20.024,17,40.014,30.878,57.811c12.696,16.281,27.747,30.327,43.901,41.056C452.991,398.408,404.142,448.667,342.369,473.255
	z M489.639,262.525c-0.012,0.469-0.025,0.938-0.04,1.407c-0.07,2.12-0.166,4.238-0.293,6.352c-0.02,0.342-0.047,0.683-0.069,1.025
	c-0.125,1.932-0.274,3.861-0.445,5.787c-0.033,0.371-0.062,0.741-0.097,1.112c-0.198,2.099-0.426,4.193-0.68,6.282
	c-0.056,0.455-0.115,0.909-0.173,1.363c-0.263,2.064-0.545,4.123-0.863,6.176c-0.014,0.09-0.026,0.18-0.04,0.27
	c-0.329,2.113-0.697,4.218-1.084,6.32c-0.087,0.469-0.173,0.936-0.262,1.405c-0.394,2.066-0.81,4.126-1.259,6.18
	c-0.068,0.308-0.141,0.617-0.21,0.925c-0.417,1.87-0.859,3.735-1.323,5.594c-0.065,0.259-0.127,0.519-0.193,0.778
	c-12.118-8.849-23.433-19.87-33.222-32.422c-12.264-15.728-21.671-33.303-27.203-50.825c-10.783-34.143-34.401-64.092-66.501-84.333
	c-21.934-13.832-34.013-32.055-34.013-51.312c0-18.793,11.914-37.005,32.9-50.598c0.456,0.213,0.913,0.426,1.368,0.642
	c0.633,0.299,1.267,0.599,1.896,0.904c0.656,0.317,1.307,0.641,1.958,0.964c0.629,0.312,1.259,0.623,1.884,0.941
	c0.643,0.326,1.282,0.659,1.922,0.991c0.627,0.325,1.255,0.649,1.879,0.981c0.63,0.334,1.255,0.675,1.882,1.014
	c0.623,0.338,1.248,0.675,1.868,1.017c0.618,0.342,1.23,0.69,1.843,1.037c0.622,0.352,1.247,0.702,1.865,1.06
	c0.6,0.347,1.194,0.7,1.791,1.052c0.624,0.368,1.25,0.735,1.87,1.107c0.581,0.349,1.155,0.707,1.733,1.061
	c0.628,0.385,1.257,0.769,1.88,1.16c0.564,0.354,1.122,0.715,1.682,1.073c0.628,0.401,1.257,0.8,1.88,1.207
	c0.548,0.357,1.09,0.722,1.634,1.084c0.627,0.417,1.257,0.831,1.879,1.254c0.53,0.36,1.054,0.727,1.581,1.091
	c0.629,0.435,1.261,0.867,1.885,1.308c0.504,0.356,1.003,0.719,1.504,1.079c0.638,0.457,1.278,0.913,1.911,1.377
	c0.469,0.344,0.931,0.695,1.396,1.041c0.659,0.491,1.32,0.978,1.973,1.476c0.408,0.312,0.811,0.63,1.219,0.944
	c0.7,0.54,1.401,1.077,2.095,1.625c0.328,0.259,0.651,0.524,0.977,0.786c0.764,0.61,1.528,1.219,2.284,1.838
	c0.106,0.087,0.209,0.176,0.315,0.263c3.058,2.514,6.046,5.099,8.962,7.756c0.036,0.032,0.071,0.063,0.107,0.096
	c0.781,0.712,1.553,1.435,2.323,2.157c0.24,0.226,0.486,0.447,0.726,0.675c0.69,0.653,1.371,1.315,2.054,1.976
	c0.314,0.304,0.632,0.604,0.944,0.91c0.641,0.629,1.274,1.266,1.908,1.901c0.344,0.345,0.692,0.686,1.034,1.033
	c0.604,0.614,1.201,1.235,1.799,1.857c0.363,0.377,0.73,0.751,1.091,1.13c0.575,0.605,1.142,1.218,1.71,1.829
	c0.374,0.402,0.751,0.801,1.123,1.205c0.555,0.605,1.102,1.218,1.651,1.829c0.374,0.417,0.752,0.831,1.124,1.251
	c0.535,0.605,1.063,1.217,1.593,1.828c0.376,0.434,0.756,0.867,1.13,1.303c0.519,0.607,1.03,1.22,1.542,1.832
	c0.373,0.446,0.749,0.89,1.119,1.339c0.505,0.614,1.004,1.234,1.504,1.853c0.367,0.455,0.736,0.907,1.1,1.365
	c0.49,0.617,0.973,1.239,1.457,1.86c0.365,0.469,0.731,0.936,1.092,1.407c0.474,0.619,0.941,1.242,1.409,1.865
	c0.361,0.481,0.722,0.959,1.08,1.442c0.46,0.623,0.914,1.251,1.368,1.879c0.354,0.49,0.709,0.978,1.06,1.47
	c0.446,0.628,0.887,1.26,1.328,1.892c0.348,0.501,0.698,1.001,1.043,1.504c0.432,0.63,0.857,1.263,1.282,1.898
	c0.343,0.511,0.687,1.022,1.026,1.536c0.42,0.636,0.833,1.274,1.245,1.914c0.335,0.519,0.67,1.037,1.001,1.558
	c0.406,0.641,0.808,1.286,1.209,1.931c0.327,0.528,0.654,1.054,0.978,1.585c0.392,0.642,0.778,1.288,1.164,1.933
	c0.323,0.541,0.646,1.082,0.964,1.625c0.377,0.643,0.749,1.289,1.12,1.937c0.315,0.55,0.629,1.1,0.941,1.652
	c0.366,0.651,0.728,1.304,1.087,1.959c0.304,0.553,0.608,1.106,0.907,1.662c0.355,0.658,0.706,1.318,1.054,1.979
	c0.296,0.561,0.59,1.123,0.882,1.686c0.342,0.661,0.679,1.325,1.015,1.989c0.287,0.569,0.572,1.139,0.855,1.71
	c0.328,0.663,0.653,1.329,0.975,1.997c0.279,0.58,0.558,1.161,0.833,1.743c0.314,0.663,0.624,1.329,0.932,1.995
	c0.273,0.591,0.542,1.183,0.81,1.776c0.301,0.666,0.598,1.332,0.892,2c0.264,0.599,0.524,1.199,0.782,1.801
	c0.287,0.668,0.571,1.337,0.853,2.007c0.255,0.608,0.506,1.217,0.756,1.827c0.274,0.671,0.547,1.342,0.815,2.016
	c0.245,0.616,0.486,1.233,0.727,1.851c0.26,0.671,0.52,1.343,0.774,2.017c0.236,0.624,0.467,1.251,0.698,1.878
	c0.248,0.674,0.495,1.35,0.737,2.027c0.226,0.631,0.447,1.264,0.668,1.898c0.235,0.677,0.47,1.353,0.699,2.032
	c0.216,0.638,0.426,1.278,0.636,1.918c0.223,0.68,0.445,1.361,0.662,2.044c0.205,0.644,0.404,1.291,0.603,1.937
	c0.21,0.681,0.42,1.363,0.624,2.047c0.195,0.653,0.384,1.309,0.573,1.965c0.197,0.682,0.394,1.363,0.584,2.048
	c0.184,0.66,0.362,1.322,0.541,1.985c0.185,0.685,0.37,1.369,0.548,2.057c0.174,0.667,0.339,1.336,0.506,2.005
	c0.171,0.685,0.344,1.369,0.509,2.056c0.163,0.678,0.318,1.357,0.475,2.037c0.158,0.682,0.317,1.366,0.469,2.05
	c0.152,0.688,0.297,1.378,0.443,2.068c0.144,0.679,0.289,1.358,0.429,2.039c0.141,0.698,0.275,1.399,0.411,2.098
	c0.131,0.678,0.264,1.356,0.39,2.036c0.13,0.708,0.253,1.419,0.376,2.129c0.118,0.673,0.238,1.347,0.349,2.022
	c0.119,0.719,0.229,1.44,0.341,2.162c0.105,0.671,0.213,1.342,0.312,2.016c0.107,0.728,0.205,1.459,0.304,2.189
	c0.092,0.668,0.187,1.336,0.273,2.005c0.095,0.741,0.18,1.485,0.268,2.227c0.079,0.662,0.161,1.322,0.234,1.986
	c0.083,0.757,0.156,1.516,0.232,2.274c0.066,0.652,0.136,1.304,0.195,1.958c0.071,0.774,0.13,1.55,0.194,2.326
	c0.052,0.641,0.11,1.281,0.157,1.923c0.058,0.794,0.105,1.589,0.155,2.385c0.039,0.628,0.085,1.253,0.119,1.882
	c0.046,0.838,0.079,1.677,0.116,2.517c0.026,0.588,0.058,1.173,0.08,1.762c0.035,0.944,0.056,1.89,0.079,2.835
	c0.012,0.488,0.031,0.973,0.04,1.46c0.027,1.434,0.04,2.871,0.04,4.309C489.74,258.178,489.7,260.353,489.639,262.525z"/>
<path d="M324.06,291.341l-49.215-9.818c-2.992-0.597-6.096,0.061-8.588,1.816c-2.972,1.916-23.875,12.703-42.479,22.084
	c-2.715,1.369-4.754,3.79-5.638,6.699c-0.884,2.91-0.54,6.055,0.952,8.704l14.304,25.379c0.322,0.57,0.692,1.111,1.109,1.615
	c13.037,15.815,31.261,26.854,51.316,31.084c6.156,1.299,12.412,1.941,18.659,1.94c14.101,0,28.148-3.273,40.839-9.649l4.681-2.352
	c3.365-1.691,5.646-4.969,6.065-8.711l2.424-21.71C360.989,315.996,346.189,295.756,324.06,291.341z M336.363,335.953l-1.753,15.704
	c-28.338,13.843-61.945,6.784-82.323-17.27l-8.088-14.35c11.051-5.616,23.604-12.079,30.415-15.86l45.092,8.996
	C330.413,315.307,337.574,325.101,336.363,335.953z"/>
<path d="M118.069,121.868c-0.004-0.209-0.017-0.416-0.032-0.624c-0.011-0.129-0.022-0.257-0.038-0.387
	c-0.031-0.27-0.073-0.54-0.124-0.808c-0.007-0.035-0.009-0.07-0.016-0.105c-0.004-0.026-0.014-0.051-0.019-0.078
	c-0.06-0.289-0.131-0.577-0.215-0.86c-0.02-0.068-0.039-0.136-0.06-0.204c-0.199-0.641-0.46-1.264-0.777-1.867
	c-0.02-0.038-0.039-0.076-0.06-0.114c-0.142-0.263-0.297-0.52-0.462-0.772c-0.023-0.037-0.043-0.077-0.067-0.112
	c-0.021-0.031-0.046-0.059-0.067-0.09c-0.132-0.194-0.272-0.383-0.417-0.57c-0.108-0.14-0.219-0.277-0.334-0.411
	c-0.108-0.125-0.219-0.247-0.333-0.367c-0.078-0.082-0.149-0.173-0.228-0.253c-0.073-0.073-0.155-0.138-0.23-0.208
	c-0.055-0.051-0.102-0.108-0.158-0.158c-0.058-0.053-0.121-0.097-0.181-0.148c-0.156-0.136-0.315-0.266-0.48-0.393
	c-0.16-0.125-0.323-0.243-0.488-0.357c-0.053-0.037-0.102-0.079-0.156-0.115c-0.055-0.037-0.114-0.066-0.169-0.101
	c-0.217-0.139-0.436-0.272-0.66-0.394c-0.077-0.042-0.155-0.082-0.234-0.122c-0.266-0.138-0.536-0.265-0.81-0.381
	c-0.019-0.008-0.036-0.018-0.055-0.026c-0.026-0.011-0.053-0.018-0.079-0.029c-0.266-0.108-0.534-0.206-0.806-0.293
	c-0.11-0.036-0.221-0.067-0.334-0.099c-0.237-0.067-0.474-0.127-0.715-0.178c-0.05-0.01-0.098-0.028-0.148-0.037
	c-0.062-0.012-0.127-0.017-0.189-0.029c-0.229-0.041-0.46-0.077-0.69-0.104c-0.15-0.018-0.299-0.031-0.45-0.042
	c-0.198-0.014-0.395-0.026-0.593-0.029c-0.17-0.003-0.341-0.003-0.51,0c-0.19,0.004-0.38,0.014-0.569,0.029
	c-0.163,0.012-0.324,0.027-0.485,0.047c-0.217,0.026-0.433,0.059-0.649,0.098c-0.068,0.012-0.138,0.018-0.206,0.031
	c-0.055,0.01-0.108,0.029-0.164,0.04c-0.228,0.049-0.455,0.106-0.681,0.169c-0.126,0.036-0.252,0.071-0.376,0.111
	c-0.235,0.075-0.465,0.159-0.696,0.25c-0.058,0.023-0.119,0.04-0.177,0.063c-0.04,0.017-0.078,0.039-0.117,0.056
	c-0.244,0.105-0.484,0.219-0.721,0.343c-0.08,0.041-0.16,0.082-0.24,0.126c-0.233,0.128-0.462,0.266-0.687,0.411
	c-0.049,0.031-0.101,0.057-0.149,0.089c-0.041,0.027-0.078,0.059-0.118,0.087c-0.179,0.124-0.355,0.253-0.528,0.387
	c-0.15,0.117-0.297,0.235-0.442,0.36c-0.116,0.1-0.229,0.204-0.341,0.309c-0.087,0.081-0.18,0.155-0.264,0.238
	c-0.078,0.078-0.146,0.165-0.221,0.245c-0.049,0.052-0.102,0.097-0.15,0.149l-0.28,0.312l0.008,0.007
	c-0.262,0.313-0.511,0.638-0.736,0.979c-0.412,0.601-0.746,1.247-1.024,1.926c-0.278,0.668-0.501,1.369-0.633,2.081
	c-0.146,0.712-0.223,1.447-0.223,2.17c0,0.723,0.077,1.458,0.223,2.17c0.132,0.712,0.355,1.414,0.633,2.081
	c0.278,0.679,0.612,1.325,1.024,1.926c0.401,0.612,0.868,1.18,1.38,1.692s1.08,0.979,1.693,1.38
	c0.601,0.401,1.245,0.746,1.914,1.024c0.679,0.278,1.38,0.501,2.093,0.634c0.712,0.145,1.447,0.223,2.17,0.223
	c0.722,0,1.458-0.078,2.17-0.223c0.712-0.134,1.414-0.356,2.08-0.634c0.679-0.278,1.325-0.623,1.926-1.024
	c0.612-0.401,1.18-0.868,1.692-1.38c0.058-0.058,0.11-0.125,0.167-0.185l0.016,0.013l0.19-0.211
	c0.088-0.097,0.163-0.201,0.247-0.301c0.07-0.082,0.138-0.166,0.205-0.25c0.191-0.239,0.371-0.484,0.539-0.735
	c0.006-0.008,0.011-0.014,0.017-0.022c0.006-0.008,0.009-0.017,0.014-0.024c0.607-0.912,1.063-1.888,1.372-2.901
	c0.007-0.02,0.011-0.04,0.018-0.06c0.098-0.329,0.181-0.662,0.248-0.998c0.001-0.008,0.004-0.016,0.006-0.024
	c0.002-0.011,0.003-0.022,0.006-0.033c0.059-0.302,0.106-0.605,0.139-0.91c0.012-0.108,0.021-0.216,0.031-0.325
	c0.018-0.22,0.03-0.441,0.035-0.662c0.002-0.08,0.012-0.16,0.012-0.24C118.082,122.033,118.071,121.951,118.069,121.868z"/>
</svg>